<?xml version="1.0" encoding="utf-8"?>
<svg xmlns="http://www.w3.org/2000/svg" xmlns:xlink="http://www.w3.org/1999/xlink" width="672" height="480" viewBox="0 0 2688 1920">
<defs>
  <clipPath id="clip440">
    <rect x="0" y="0" width="2688" height="1920"/>
  </clipPath>
</defs>
<path clip-path="url(#clip440)" d="M0 1920 L2688 1920 L2688 0 L0 0  Z" fill="#ffffff" fill-rule="evenodd" fill-opacity="1"/>
<defs>
  <clipPath id="clip441">
    <rect x="537" y="0" width="1883" height="1883"/>
  </clipPath>
</defs>
<path clip-path="url(#clip440)" d="M189.64 1800.78 L2640.76 1800.78 L2640.76 47.2441 L189.64 47.2441  Z" fill="#ffffff" fill-rule="evenodd" fill-opacity="1"/>
<defs>
  <clipPath id="clip442">
    <rect x="189" y="47" width="2452" height="1755"/>
  </clipPath>
</defs>
<polyline clip-path="url(#clip442)" style="stroke:#000000; stroke-linecap:round; stroke-linejoin:round; stroke-width:2; stroke-opacity:0.1; fill:none" points="606.897,1800.78 606.897,47.2441 "/>
<polyline clip-path="url(#clip442)" style="stroke:#000000; stroke-linecap:round; stroke-linejoin:round; stroke-width:2; stroke-opacity:0.1; fill:none" points="1228.67,1800.78 1228.67,47.2441 "/>
<polyline clip-path="url(#clip442)" style="stroke:#000000; stroke-linecap:round; stroke-linejoin:round; stroke-width:2; stroke-opacity:0.1; fill:none" points="1850.44,1800.78 1850.44,47.2441 "/>
<polyline clip-path="url(#clip442)" style="stroke:#000000; stroke-linecap:round; stroke-linejoin:round; stroke-width:2; stroke-opacity:0.1; fill:none" points="2472.21,1800.78 2472.21,47.2441 "/>
<polyline clip-path="url(#clip440)" style="stroke:#000000; stroke-linecap:round; stroke-linejoin:round; stroke-width:4; stroke-opacity:1; fill:none" points="189.64,1800.78 2640.76,1800.78 "/>
<polyline clip-path="url(#clip440)" style="stroke:#000000; stroke-linecap:round; stroke-linejoin:round; stroke-width:4; stroke-opacity:1; fill:none" points="606.897,1800.78 606.897,1781.88 "/>
<polyline clip-path="url(#clip440)" style="stroke:#000000; stroke-linecap:round; stroke-linejoin:round; stroke-width:4; stroke-opacity:1; fill:none" points="1228.67,1800.78 1228.67,1781.88 "/>
<polyline clip-path="url(#clip440)" style="stroke:#000000; stroke-linecap:round; stroke-linejoin:round; stroke-width:4; stroke-opacity:1; fill:none" points="1850.44,1800.78 1850.44,1781.88 "/>
<polyline clip-path="url(#clip440)" style="stroke:#000000; stroke-linecap:round; stroke-linejoin:round; stroke-width:4; stroke-opacity:1; fill:none" points="2472.21,1800.78 2472.21,1781.88 "/>
<path clip-path="url(#clip440)" d="M560.96 1848.65 L590.635 1848.65 L590.635 1852.59 L560.96 1852.59 L560.96 1848.65 Z" fill="#000000" fill-rule="evenodd" fill-opacity="1" /><path clip-path="url(#clip440)" d="M601.538 1861.55 L609.177 1861.55 L609.177 1835.18 L600.867 1836.85 L600.867 1832.59 L609.131 1830.92 L613.807 1830.92 L613.807 1861.55 L621.445 1861.55 L621.445 1865.48 L601.538 1865.48 L601.538 1861.55 Z" fill="#000000" fill-rule="evenodd" fill-opacity="1" /><path clip-path="url(#clip440)" d="M640.89 1834 Q637.279 1834 635.45 1837.57 Q633.644 1841.11 633.644 1848.24 Q633.644 1855.34 635.45 1858.91 Q637.279 1862.45 640.89 1862.45 Q644.524 1862.45 646.329 1858.91 Q648.158 1855.34 648.158 1848.24 Q648.158 1841.11 646.329 1837.57 Q644.524 1834 640.89 1834 M640.89 1830.3 Q646.7 1830.3 649.755 1834.9 Q652.834 1839.49 652.834 1848.24 Q652.834 1856.96 649.755 1861.57 Q646.7 1866.15 640.89 1866.15 Q635.08 1866.15 632.001 1861.57 Q628.945 1856.96 628.945 1848.24 Q628.945 1839.49 632.001 1834.9 Q635.08 1830.3 640.89 1830.3 Z" fill="#000000" fill-rule="evenodd" fill-opacity="1" /><path clip-path="url(#clip440)" d="M1228.67 1834 Q1225.06 1834 1223.23 1837.57 Q1221.42 1841.11 1221.42 1848.24 Q1221.42 1855.34 1223.23 1858.91 Q1225.06 1862.45 1228.67 1862.45 Q1232.3 1862.45 1234.11 1858.91 Q1235.94 1855.34 1235.94 1848.24 Q1235.94 1841.11 1234.11 1837.57 Q1232.3 1834 1228.67 1834 M1228.67 1830.3 Q1234.48 1830.3 1237.53 1834.9 Q1240.61 1839.49 1240.61 1848.24 Q1240.61 1856.96 1237.53 1861.57 Q1234.48 1866.15 1228.67 1866.15 Q1222.86 1866.15 1219.78 1861.57 Q1216.72 1856.96 1216.72 1848.24 Q1216.72 1839.49 1219.78 1834.9 Q1222.86 1830.3 1228.67 1830.3 Z" fill="#000000" fill-rule="evenodd" fill-opacity="1" /><path clip-path="url(#clip440)" d="M1825.12 1861.55 L1832.76 1861.55 L1832.76 1835.18 L1824.45 1836.85 L1824.45 1832.59 L1832.72 1830.92 L1837.39 1830.92 L1837.39 1861.55 L1845.03 1861.55 L1845.03 1865.48 L1825.12 1865.48 L1825.12 1861.55 Z" fill="#000000" fill-rule="evenodd" fill-opacity="1" /><path clip-path="url(#clip440)" d="M1864.48 1834 Q1860.87 1834 1859.04 1837.57 Q1857.23 1841.11 1857.23 1848.24 Q1857.23 1855.34 1859.04 1858.91 Q1860.87 1862.45 1864.48 1862.45 Q1868.11 1862.45 1869.92 1858.91 Q1871.74 1855.34 1871.74 1848.24 Q1871.74 1841.11 1869.92 1837.57 Q1868.11 1834 1864.48 1834 M1864.48 1830.3 Q1870.29 1830.3 1873.34 1834.9 Q1876.42 1839.49 1876.42 1848.24 Q1876.42 1856.96 1873.34 1861.57 Q1870.29 1866.15 1864.48 1866.15 Q1858.67 1866.15 1855.59 1861.57 Q1852.53 1856.96 1852.53 1848.24 Q1852.53 1839.49 1855.59 1834.9 Q1858.67 1830.3 1864.48 1830.3 Z" fill="#000000" fill-rule="evenodd" fill-opacity="1" /><path clip-path="url(#clip440)" d="M2450.98 1861.55 L2467.3 1861.55 L2467.3 1865.48 L2445.36 1865.48 L2445.36 1861.55 Q2448.02 1858.79 2452.6 1854.16 Q2457.21 1849.51 2458.39 1848.17 Q2460.63 1845.65 2461.51 1843.91 Q2462.42 1842.15 2462.42 1840.46 Q2462.42 1837.71 2460.47 1835.97 Q2458.55 1834.23 2455.45 1834.23 Q2453.25 1834.23 2450.8 1835 Q2448.36 1835.76 2445.59 1837.31 L2445.59 1832.59 Q2448.41 1831.46 2450.86 1830.88 Q2453.32 1830.3 2455.36 1830.3 Q2460.73 1830.3 2463.92 1832.98 Q2467.11 1835.67 2467.11 1840.16 Q2467.11 1842.29 2466.3 1844.21 Q2465.52 1846.11 2463.41 1848.7 Q2462.83 1849.37 2459.73 1852.59 Q2456.63 1855.78 2450.98 1861.55 Z" fill="#000000" fill-rule="evenodd" fill-opacity="1" /><path clip-path="url(#clip440)" d="M2487.11 1834 Q2483.5 1834 2481.67 1837.57 Q2479.87 1841.11 2479.87 1848.24 Q2479.87 1855.34 2481.67 1858.91 Q2483.5 1862.45 2487.11 1862.45 Q2490.75 1862.45 2492.55 1858.91 Q2494.38 1855.34 2494.38 1848.24 Q2494.38 1841.11 2492.55 1837.57 Q2490.75 1834 2487.11 1834 M2487.11 1830.3 Q2492.92 1830.3 2495.98 1834.9 Q2499.06 1839.49 2499.06 1848.24 Q2499.06 1856.96 2495.98 1861.57 Q2492.92 1866.15 2487.11 1866.15 Q2481.3 1866.15 2478.23 1861.57 Q2475.17 1856.96 2475.17 1848.24 Q2475.17 1839.49 2478.23 1834.9 Q2481.3 1830.3 2487.11 1830.3 Z" fill="#000000" fill-rule="evenodd" fill-opacity="1" /><polyline clip-path="url(#clip442)" style="stroke:#000000; stroke-linecap:round; stroke-linejoin:round; stroke-width:2; stroke-opacity:0.1; fill:none" points="189.64,1752.79 2640.76,1752.79 "/>
<polyline clip-path="url(#clip442)" style="stroke:#000000; stroke-linecap:round; stroke-linejoin:round; stroke-width:2; stroke-opacity:0.1; fill:none" points="189.64,1337.66 2640.76,1337.66 "/>
<polyline clip-path="url(#clip442)" style="stroke:#000000; stroke-linecap:round; stroke-linejoin:round; stroke-width:2; stroke-opacity:0.1; fill:none" points="189.64,922.53 2640.76,922.53 "/>
<polyline clip-path="url(#clip442)" style="stroke:#000000; stroke-linecap:round; stroke-linejoin:round; stroke-width:2; stroke-opacity:0.1; fill:none" points="189.64,507.397 2640.76,507.397 "/>
<polyline clip-path="url(#clip442)" style="stroke:#000000; stroke-linecap:round; stroke-linejoin:round; stroke-width:2; stroke-opacity:0.1; fill:none" points="189.64,92.2652 2640.76,92.2652 "/>
<polyline clip-path="url(#clip440)" style="stroke:#000000; stroke-linecap:round; stroke-linejoin:round; stroke-width:4; stroke-opacity:1; fill:none" points="189.64,1800.78 189.64,47.2441 "/>
<polyline clip-path="url(#clip440)" style="stroke:#000000; stroke-linecap:round; stroke-linejoin:round; stroke-width:4; stroke-opacity:1; fill:none" points="189.64,1752.79 208.538,1752.79 "/>
<polyline clip-path="url(#clip440)" style="stroke:#000000; stroke-linecap:round; stroke-linejoin:round; stroke-width:4; stroke-opacity:1; fill:none" points="189.64,1337.66 208.538,1337.66 "/>
<polyline clip-path="url(#clip440)" style="stroke:#000000; stroke-linecap:round; stroke-linejoin:round; stroke-width:4; stroke-opacity:1; fill:none" points="189.64,922.53 208.538,922.53 "/>
<polyline clip-path="url(#clip440)" style="stroke:#000000; stroke-linecap:round; stroke-linejoin:round; stroke-width:4; stroke-opacity:1; fill:none" points="189.64,507.397 208.538,507.397 "/>
<polyline clip-path="url(#clip440)" style="stroke:#000000; stroke-linecap:round; stroke-linejoin:round; stroke-width:4; stroke-opacity:1; fill:none" points="189.64,92.2652 208.538,92.2652 "/>
<path clip-path="url(#clip440)" d="M61.9826 1738.59 Q58.3715 1738.59 56.5428 1742.16 Q54.7373 1745.7 54.7373 1752.83 Q54.7373 1759.94 56.5428 1763.5 Q58.3715 1767.04 61.9826 1767.04 Q65.6169 1767.04 67.4224 1763.5 Q69.2511 1759.94 69.2511 1752.83 Q69.2511 1745.7 67.4224 1742.16 Q65.6169 1738.59 61.9826 1738.59 M61.9826 1734.89 Q67.7928 1734.89 70.8483 1739.5 Q73.927 1744.08 73.927 1752.83 Q73.927 1761.56 70.8483 1766.16 Q67.7928 1770.75 61.9826 1770.75 Q56.1725 1770.75 53.0938 1766.16 Q50.0382 1761.56 50.0382 1752.83 Q50.0382 1744.08 53.0938 1739.5 Q56.1725 1734.89 61.9826 1734.89 Z" fill="#000000" fill-rule="evenodd" fill-opacity="1" /><path clip-path="url(#clip440)" d="M82.1445 1764.19 L87.0288 1764.19 L87.0288 1770.07 L82.1445 1770.07 L82.1445 1764.19 Z" fill="#000000" fill-rule="evenodd" fill-opacity="1" /><path clip-path="url(#clip440)" d="M107.214 1738.59 Q103.603 1738.59 101.774 1742.16 Q99.9685 1745.7 99.9685 1752.83 Q99.9685 1759.94 101.774 1763.5 Q103.603 1767.04 107.214 1767.04 Q110.848 1767.04 112.654 1763.5 Q114.482 1759.94 114.482 1752.83 Q114.482 1745.7 112.654 1742.16 Q110.848 1738.59 107.214 1738.59 M107.214 1734.89 Q113.024 1734.89 116.08 1739.5 Q119.158 1744.08 119.158 1752.83 Q119.158 1761.56 116.08 1766.16 Q113.024 1770.75 107.214 1770.75 Q101.404 1770.75 98.325 1766.16 Q95.2695 1761.56 95.2695 1752.83 Q95.2695 1744.08 98.325 1739.5 Q101.404 1734.89 107.214 1734.89 Z" fill="#000000" fill-rule="evenodd" fill-opacity="1" /><path clip-path="url(#clip440)" d="M137.376 1738.59 Q133.765 1738.59 131.936 1742.16 Q130.13 1745.7 130.13 1752.83 Q130.13 1759.94 131.936 1763.5 Q133.765 1767.04 137.376 1767.04 Q141.01 1767.04 142.816 1763.5 Q144.644 1759.94 144.644 1752.83 Q144.644 1745.7 142.816 1742.16 Q141.01 1738.59 137.376 1738.59 M137.376 1734.89 Q143.186 1734.89 146.241 1739.5 Q149.32 1744.08 149.32 1752.83 Q149.32 1761.56 146.241 1766.16 Q143.186 1770.75 137.376 1770.75 Q131.566 1770.75 128.487 1766.16 Q125.431 1761.56 125.431 1752.83 Q125.431 1744.08 128.487 1739.5 Q131.566 1734.89 137.376 1734.89 Z" fill="#000000" fill-rule="evenodd" fill-opacity="1" /><path clip-path="url(#clip440)" d="M63.5798 1323.46 Q59.9687 1323.46 58.14 1327.03 Q56.3345 1330.57 56.3345 1337.7 Q56.3345 1344.8 58.14 1348.37 Q59.9687 1351.91 63.5798 1351.91 Q67.2141 1351.91 69.0196 1348.37 Q70.8483 1344.8 70.8483 1337.7 Q70.8483 1330.57 69.0196 1327.03 Q67.2141 1323.46 63.5798 1323.46 M63.5798 1319.76 Q69.39 1319.76 72.4455 1324.36 Q75.5242 1328.95 75.5242 1337.7 Q75.5242 1346.42 72.4455 1351.03 Q69.39 1355.61 63.5798 1355.61 Q57.7697 1355.61 54.691 1351.03 Q51.6354 1346.42 51.6354 1337.7 Q51.6354 1328.95 54.691 1324.36 Q57.7697 1319.76 63.5798 1319.76 Z" fill="#000000" fill-rule="evenodd" fill-opacity="1" /><path clip-path="url(#clip440)" d="M83.7418 1349.06 L88.626 1349.06 L88.626 1354.94 L83.7418 1354.94 L83.7418 1349.06 Z" fill="#000000" fill-rule="evenodd" fill-opacity="1" /><path clip-path="url(#clip440)" d="M108.811 1323.46 Q105.2 1323.46 103.371 1327.03 Q101.566 1330.57 101.566 1337.7 Q101.566 1344.8 103.371 1348.37 Q105.2 1351.91 108.811 1351.91 Q112.445 1351.91 114.251 1348.37 Q116.08 1344.8 116.08 1337.7 Q116.08 1330.57 114.251 1327.03 Q112.445 1323.46 108.811 1323.46 M108.811 1319.76 Q114.621 1319.76 117.677 1324.36 Q120.755 1328.95 120.755 1337.7 Q120.755 1346.42 117.677 1351.03 Q114.621 1355.61 108.811 1355.61 Q103.001 1355.61 99.9222 1351.03 Q96.8667 1346.42 96.8667 1337.7 Q96.8667 1328.95 99.9222 1324.36 Q103.001 1319.76 108.811 1319.76 Z" fill="#000000" fill-rule="evenodd" fill-opacity="1" /><path clip-path="url(#clip440)" d="M133.001 1351.01 L149.32 1351.01 L149.32 1354.94 L127.376 1354.94 L127.376 1351.01 Q130.038 1348.25 134.621 1343.62 Q139.228 1338.97 140.408 1337.63 Q142.653 1335.1 143.533 1333.37 Q144.436 1331.61 144.436 1329.92 Q144.436 1327.16 142.491 1325.43 Q140.57 1323.69 137.468 1323.69 Q135.269 1323.69 132.816 1324.46 Q130.385 1325.22 127.607 1326.77 L127.607 1322.05 Q130.431 1320.91 132.885 1320.34 Q135.339 1319.76 137.376 1319.76 Q142.746 1319.76 145.94 1322.44 Q149.135 1325.13 149.135 1329.62 Q149.135 1331.75 148.325 1333.67 Q147.538 1335.57 145.431 1338.16 Q144.853 1338.83 141.751 1342.05 Q138.649 1345.24 133.001 1351.01 Z" fill="#000000" fill-rule="evenodd" fill-opacity="1" /><path clip-path="url(#clip440)" d="M61.4965 908.328 Q57.8854 908.328 56.0567 911.893 Q54.2512 915.435 54.2512 922.564 Q54.2512 929.671 56.0567 933.236 Q57.8854 936.777 61.4965 936.777 Q65.1307 936.777 66.9363 933.236 Q68.765 929.671 68.765 922.564 Q68.765 915.435 66.9363 911.893 Q65.1307 908.328 61.4965 908.328 M61.4965 904.625 Q67.3067 904.625 70.3622 909.231 Q73.4409 913.814 73.4409 922.564 Q73.4409 931.291 70.3622 935.898 Q67.3067 940.481 61.4965 940.481 Q55.6864 940.481 52.6077 935.898 Q49.5521 931.291 49.5521 922.564 Q49.5521 913.814 52.6077 909.231 Q55.6864 904.625 61.4965 904.625 Z" fill="#000000" fill-rule="evenodd" fill-opacity="1" /><path clip-path="url(#clip440)" d="M81.6584 933.93 L86.5427 933.93 L86.5427 939.81 L81.6584 939.81 L81.6584 933.93 Z" fill="#000000" fill-rule="evenodd" fill-opacity="1" /><path clip-path="url(#clip440)" d="M106.728 908.328 Q103.117 908.328 101.288 911.893 Q99.4824 915.435 99.4824 922.564 Q99.4824 929.671 101.288 933.236 Q103.117 936.777 106.728 936.777 Q110.362 936.777 112.168 933.236 Q113.996 929.671 113.996 922.564 Q113.996 915.435 112.168 911.893 Q110.362 908.328 106.728 908.328 M106.728 904.625 Q112.538 904.625 115.593 909.231 Q118.672 913.814 118.672 922.564 Q118.672 931.291 115.593 935.898 Q112.538 940.481 106.728 940.481 Q100.918 940.481 97.8389 935.898 Q94.7834 931.291 94.7834 922.564 Q94.7834 913.814 97.8389 909.231 Q100.918 904.625 106.728 904.625 Z" fill="#000000" fill-rule="evenodd" fill-opacity="1" /><path clip-path="url(#clip440)" d="M139.737 909.324 L127.931 927.773 L139.737 927.773 L139.737 909.324 M138.51 905.25 L144.39 905.25 L144.39 927.773 L149.32 927.773 L149.32 931.662 L144.39 931.662 L144.39 939.81 L139.737 939.81 L139.737 931.662 L124.135 931.662 L124.135 927.148 L138.51 905.25 Z" fill="#000000" fill-rule="evenodd" fill-opacity="1" /><path clip-path="url(#clip440)" d="M61.8206 493.196 Q58.2095 493.196 56.3808 496.761 Q54.5752 500.303 54.5752 507.432 Q54.5752 514.539 56.3808 518.103 Q58.2095 521.645 61.8206 521.645 Q65.4548 521.645 67.2604 518.103 Q69.0891 514.539 69.0891 507.432 Q69.0891 500.303 67.2604 496.761 Q65.4548 493.196 61.8206 493.196 M61.8206 489.492 Q67.6307 489.492 70.6863 494.099 Q73.765 498.682 73.765 507.432 Q73.765 516.159 70.6863 520.765 Q67.6307 525.349 61.8206 525.349 Q56.0104 525.349 52.9317 520.765 Q49.8762 516.159 49.8762 507.432 Q49.8762 498.682 52.9317 494.099 Q56.0104 489.492 61.8206 489.492 Z" fill="#000000" fill-rule="evenodd" fill-opacity="1" /><path clip-path="url(#clip440)" d="M81.9825 518.798 L86.8667 518.798 L86.8667 524.677 L81.9825 524.677 L81.9825 518.798 Z" fill="#000000" fill-rule="evenodd" fill-opacity="1" /><path clip-path="url(#clip440)" d="M107.052 493.196 Q103.441 493.196 101.612 496.761 Q99.8065 500.303 99.8065 507.432 Q99.8065 514.539 101.612 518.103 Q103.441 521.645 107.052 521.645 Q110.686 521.645 112.492 518.103 Q114.32 514.539 114.32 507.432 Q114.32 500.303 112.492 496.761 Q110.686 493.196 107.052 493.196 M107.052 489.492 Q112.862 489.492 115.918 494.099 Q118.996 498.682 118.996 507.432 Q118.996 516.159 115.918 520.765 Q112.862 525.349 107.052 525.349 Q101.242 525.349 98.163 520.765 Q95.1074 516.159 95.1074 507.432 Q95.1074 498.682 98.163 494.099 Q101.242 489.492 107.052 489.492 Z" fill="#000000" fill-rule="evenodd" fill-opacity="1" /><path clip-path="url(#clip440)" d="M137.792 505.534 Q134.644 505.534 132.792 507.687 Q130.964 509.84 130.964 513.59 Q130.964 517.316 132.792 519.492 Q134.644 521.645 137.792 521.645 Q140.941 521.645 142.769 519.492 Q144.621 517.316 144.621 513.59 Q144.621 509.84 142.769 507.687 Q140.941 505.534 137.792 505.534 M147.075 490.881 L147.075 495.141 Q145.316 494.307 143.51 493.867 Q141.728 493.428 139.968 493.428 Q135.339 493.428 132.885 496.553 Q130.454 499.678 130.107 505.997 Q131.473 503.983 133.533 502.918 Q135.593 501.83 138.07 501.83 Q143.278 501.83 146.288 505.002 Q149.32 508.15 149.32 513.59 Q149.32 518.914 146.172 522.131 Q143.024 525.349 137.792 525.349 Q131.797 525.349 128.626 520.765 Q125.454 516.159 125.454 507.432 Q125.454 499.238 129.343 494.377 Q133.232 489.492 139.783 489.492 Q141.542 489.492 143.325 489.84 Q145.13 490.187 147.075 490.881 Z" fill="#000000" fill-rule="evenodd" fill-opacity="1" /><path clip-path="url(#clip440)" d="M62.0752 78.0639 Q58.4641 78.0639 56.6354 81.6287 Q54.8299 85.1703 54.8299 92.2999 Q54.8299 99.4064 56.6354 102.971 Q58.4641 106.513 62.0752 106.513 Q65.7094 106.513 67.515 102.971 Q69.3437 99.4064 69.3437 92.2999 Q69.3437 85.1703 67.515 81.6287 Q65.7094 78.0639 62.0752 78.0639 M62.0752 74.3602 Q67.8854 74.3602 70.9409 78.9666 Q74.0196 83.55 74.0196 92.2999 Q74.0196 101.027 70.9409 105.633 Q67.8854 110.216 62.0752 110.216 Q56.2651 110.216 53.1864 105.633 Q50.1308 101.027 50.1308 92.2999 Q50.1308 83.55 53.1864 78.9666 Q56.2651 74.3602 62.0752 74.3602 Z" fill="#000000" fill-rule="evenodd" fill-opacity="1" /><path clip-path="url(#clip440)" d="M82.2371 103.666 L87.1214 103.666 L87.1214 109.545 L82.2371 109.545 L82.2371 103.666 Z" fill="#000000" fill-rule="evenodd" fill-opacity="1" /><path clip-path="url(#clip440)" d="M107.306 78.0639 Q103.695 78.0639 101.867 81.6287 Q100.061 85.1703 100.061 92.2999 Q100.061 99.4064 101.867 102.971 Q103.695 106.513 107.306 106.513 Q110.941 106.513 112.746 102.971 Q114.575 99.4064 114.575 92.2999 Q114.575 85.1703 112.746 81.6287 Q110.941 78.0639 107.306 78.0639 M107.306 74.3602 Q113.117 74.3602 116.172 78.9666 Q119.251 83.55 119.251 92.2999 Q119.251 101.027 116.172 105.633 Q113.117 110.216 107.306 110.216 Q101.496 110.216 98.4176 105.633 Q95.3621 101.027 95.3621 92.2999 Q95.3621 83.55 98.4176 78.9666 Q101.496 74.3602 107.306 74.3602 Z" fill="#000000" fill-rule="evenodd" fill-opacity="1" /><path clip-path="url(#clip440)" d="M137.468 93.1332 Q134.135 93.1332 132.214 94.9156 Q130.316 96.698 130.316 99.823 Q130.316 102.948 132.214 104.73 Q134.135 106.513 137.468 106.513 Q140.802 106.513 142.723 104.73 Q144.644 102.925 144.644 99.823 Q144.644 96.698 142.723 94.9156 Q140.825 93.1332 137.468 93.1332 M132.792 91.1425 Q129.783 90.4018 128.093 88.3416 Q126.427 86.2814 126.427 83.3185 Q126.427 79.175 129.367 76.7676 Q132.329 74.3602 137.468 74.3602 Q142.63 74.3602 145.57 76.7676 Q148.51 79.175 148.51 83.3185 Q148.51 86.2814 146.82 88.3416 Q145.153 90.4018 142.167 91.1425 Q145.547 91.9295 147.422 94.2212 Q149.32 96.5129 149.32 99.823 Q149.32 104.846 146.241 107.531 Q143.186 110.216 137.468 110.216 Q131.751 110.216 128.672 107.531 Q125.617 104.846 125.617 99.823 Q125.617 96.5129 127.515 94.2212 Q129.413 91.9295 132.792 91.1425 M131.079 83.7583 Q131.079 86.4435 132.746 87.9481 Q134.436 89.4527 137.468 89.4527 Q140.478 89.4527 142.167 87.9481 Q143.88 86.4435 143.88 83.7583 Q143.88 81.0731 142.167 79.5685 Q140.478 78.0639 137.468 78.0639 Q134.436 78.0639 132.746 79.5685 Q131.079 81.0731 131.079 83.7583 Z" fill="#000000" fill-rule="evenodd" fill-opacity="1" /><polyline clip-path="url(#clip442)" style="stroke:#009af9; stroke-linecap:round; stroke-linejoin:round; stroke-width:12; stroke-opacity:1; fill:none" points="259.011,1751.15 266.539,1751 274.066,1750.83 343.668,1748.43 413.27,1743.6 455.097,1738.73 496.925,1731.68 532.29,1723.44 567.655,1712.5 586.863,1705.2 606.071,1696.8 625.279,1687.15 644.487,1676.14 662.195,1664.66 679.903,1651.78 697.611,1637.4 715.32,1621.4 734.305,1602.32 753.289,1581.1 772.274,1557.63 791.259,1531.77 813.255,1498.68 835.251,1462.1 857.247,1421.92 879.243,1378.06 898.791,1335.98 918.338,1291.01 937.886,1243.2 957.433,1192.66 974.574,1146.21 991.716,1097.9 1008.86,1047.89 1026,996.367 1063.38,879.83 1100.75,759.798 1138.35,638.762 1175.95,521.121 1186.34,489.73 1196.74,458.985 1207.13,428.972 1217.52,399.776 1227.92,371.48 1238.31,344.168 1248.7,317.92 1259.09,292.815 1268.98,270.06 1278.87,248.474 1288.76,228.116 1298.65,209.045 1308.54,191.317 1318.42,174.982 1328.31,160.088 1338.2,146.679 1348.48,134.355 1358.76,123.719 1369.05,114.805 1379.33,107.643 1389.61,102.256 1399.89,98.6623 1410.17,96.8724 1420.45,96.8929 1429.11,98.3135 1437.76,101.014 1446.42,104.987 1455.07,110.224 1463.73,116.713 1472.38,124.44 1481.04,133.385 1489.69,143.529 1500.26,157.504 1510.83,173.185 1521.39,190.517 1531.96,209.442 1542.53,229.899 1553.1,251.82 1563.66,275.133 1574.23,299.764 1593.59,348.047 1612.95,399.982 1622.63,427.155 1632.31,455.04 1641.99,483.569 1651.67,512.675 1687.43,624.058 1723.19,738.94 1759.41,855.582 1795.64,969.512 1815.93,1031.2 1836.23,1090.86 1856.53,1148.17 1876.83,1202.87 1895.22,1250 1913.62,1294.7 1932.01,1336.88 1950.4,1376.5 1971.46,1418.69 1992.52,1457.51 2013.58,1493.01 2034.64,1525.29 2054.14,1552.41 2073.64,1576.99 2093.14,1599.16 2112.64,1619.07 2131.86,1636.61 2151.09,1652.24 2170.31,1666.1 2189.54,1678.33 2208.2,1688.79 2226.86,1697.98 2245.53,1706.01 2264.19,1713.02 2302.46,1724.59 2340.73,1733.09 2382.66,1739.73 2424.58,1744.28 2485.49,1748.37 2546.39,1750.59 2558.89,1750.89 2571.38,1751.15 "/>
<path clip-path="url(#clip440)" d="M2261.51 209.375 L2559.05 209.375 L2559.05 105.695 L2261.51 105.695  Z" fill="#ffffff" fill-rule="evenodd" fill-opacity="1"/>
<polyline clip-path="url(#clip440)" style="stroke:#000000; stroke-linecap:round; stroke-linejoin:round; stroke-width:4; stroke-opacity:1; fill:none" points="2261.51,209.375 2559.05,209.375 2559.05,105.695 2261.51,105.695 2261.51,209.375 "/>
<polyline clip-path="url(#clip440)" style="stroke:#009af9; stroke-linecap:round; stroke-linejoin:round; stroke-width:12; stroke-opacity:1; fill:none" points="2288.74,157.535 2452.15,157.535 "/>
<path clip-path="url(#clip440)" d="M2493.23 177.223 Q2491.42 181.852 2489.71 183.264 Q2488 184.676 2485.13 184.676 L2481.73 184.676 L2481.73 181.112 L2484.23 181.112 Q2485.98 181.112 2486.96 180.278 Q2487.93 179.445 2489.11 176.343 L2489.87 174.399 L2479.39 148.889 L2483.9 148.889 L2492 169.167 L2500.1 148.889 L2504.62 148.889 L2493.23 177.223 Z" fill="#000000" fill-rule="evenodd" fill-opacity="1" /><path clip-path="url(#clip440)" d="M2511.91 170.88 L2519.55 170.88 L2519.55 144.515 L2511.24 146.181 L2511.24 141.922 L2519.5 140.255 L2524.18 140.255 L2524.18 170.88 L2531.82 170.88 L2531.82 174.815 L2511.91 174.815 L2511.91 170.88 Z" fill="#000000" fill-rule="evenodd" fill-opacity="1" /></svg>
